<svg id="svg" version="1.1" xmlns="http://www.w3.org/2000/svg" xmlns:xlink="http://www.w3.org/1999/xlink" width="400" height="400" viewBox="0, 0, 400,400"><g id="svgg"><path id="path0" d="M357.239 87.292 L 355.061 88.557 355.989 89.050 C 358.622 90.446,360.346 91.567,362.433 93.237 C 364.079 94.554,366.862 97.429,367.905 98.892 C 368.756 100.084,368.912 100.238,368.609 99.585 C 368.503 99.356,368.360 99.169,368.292 99.168 C 368.223 99.167,368.167 99.099,368.167 99.017 C 368.167 98.861,366.673 96.419,365.353 94.417 C 364.929 93.775,364.546 93.167,364.500 93.064 C 364.409 92.862,361.802 88.969,361.667 88.833 C 361.621 88.787,361.508 88.624,361.417 88.470 C 360.835 87.492,359.723 86.004,359.583 86.014 C 359.492 86.020,358.437 86.595,357.239 87.292 M367.417 104.440 C 365.950 105.302,364.436 106.168,364.053 106.365 L 363.356 106.722 363.740 107.486 C 367.469 114.907,366.462 126.763,361.087 138.750 C 359.529 142.223,358.471 144.337,356.747 147.417 C 354.360 151.683,351.465 156.177,348.104 160.833 C 346.646 162.853,342.874 167.831,342.674 168.000 C 342.619 168.046,342.316 168.421,342.000 168.833 C 341.684 169.246,341.386 169.621,341.337 169.667 C 341.289 169.712,340.824 170.275,340.304 170.917 C 339.784 171.558,339.221 172.233,339.054 172.417 C 338.887 172.600,338.534 173.012,338.269 173.333 C 337.752 173.962,336.075 175.894,335.667 176.332 C 335.529 176.480,334.892 177.196,334.250 177.925 C 333.608 178.653,332.922 179.429,332.724 179.648 C 330.555 182.053,332.561 186.175,335.894 186.163 C 337.668 186.157,338.147 185.803,341.417 182.079 C 342.058 181.348,342.622 180.713,342.669 180.667 C 342.717 180.621,343.390 179.833,344.167 178.917 C 344.943 178.000,345.621 177.213,345.674 177.167 C 345.996 176.886,351.723 169.626,353.046 167.820 C 353.208 167.598,353.815 166.779,354.394 166.000 C 371.329 143.195,377.817 120.908,371.851 106.030 C 371.655 105.542,371.545 105.061,371.607 104.962 C 371.676 104.849,371.640 104.830,371.508 104.912 C 371.351 105.008,371.328 104.946,371.417 104.667 C 371.498 104.411,371.477 104.328,371.351 104.406 C 371.186 104.508,371.093 104.302,371.147 103.958 C 371.158 103.890,371.101 103.833,371.020 103.833 C 370.940 103.833,370.781 103.608,370.667 103.333 C 370.392 102.670,370.472 102.643,367.417 104.440 M288.953 209.082 C 284.896 210.198,284.226 215.725,287.875 217.975 L 288.500 218.361 288.500 227.597 L 288.500 236.833 278.661 236.833 C 268.091 236.833,268.033 236.838,267.438 237.686 C 266.929 238.414,267.143 239.596,267.895 240.205 C 268.223 240.471,269.098 240.493,279.607 240.496 L 290.965 240.500 291.482 240.016 L 292.000 239.533 292.000 228.953 L 292.000 218.374 292.458 218.180 C 297.823 215.918,294.592 207.531,288.953 209.082 M290.900 212.232 C 292.666 212.970,292.092 215.500,290.158 215.500 C 288.451 215.500,288.238 212.523,289.917 212.119 C 290.100 212.075,290.271 212.030,290.297 212.019 C 290.323 212.009,290.594 212.105,290.900 212.232 M62.200 214.265 C 61.724 214.502,61.179 214.893,60.989 215.135 C 60.800 215.376,60.100 216.176,59.434 216.912 C 58.158 218.324,57.372 219.213,56.570 220.155 C 56.302 220.469,55.971 220.846,55.833 220.993 C 55.696 221.139,55.246 221.669,54.833 222.169 C 53.655 223.597,53.588 223.678,52.490 225.000 C 51.524 226.162,48.484 230.056,46.893 232.167 C 46.296 232.958,43.356 237.093,42.330 238.583 C 35.372 248.689,29.930 259.956,27.560 269.167 C 26.777 272.211,26.000 276.648,26.000 278.077 C 26.000 278.546,25.890 278.657,24.875 279.219 C 23.858 279.781,22.388 280.626,21.609 281.096 C 21.336 281.261,21.424 281.511,22.670 284.096 C 24.883 288.689,25.239 289.412,25.330 289.500 C 25.436 289.602,25.802 290.289,26.795 292.250 C 27.824 294.282,29.164 296.689,29.454 297.027 C 29.672 297.281,29.871 297.199,31.804 296.064 C 32.966 295.381,34.497 294.507,35.206 294.120 C 36.429 293.453,36.703 293.125,36.357 292.742 C 36.061 292.413,35.191 290.021,34.784 288.417 C 33.325 282.666,33.878 275.321,36.334 267.833 C 36.565 267.128,37.862 263.613,38.086 263.083 C 39.266 260.296,39.725 259.298,40.905 256.957 C 43.734 251.343,46.192 247.249,50.236 241.417 C 51.062 240.225,51.799 239.175,51.873 239.083 C 51.947 238.992,52.992 237.604,54.196 236.000 C 57.204 231.993,62.804 225.188,65.511 222.250 C 65.849 221.883,66.365 221.321,66.658 221.000 C 70.011 217.324,66.551 212.096,62.200 214.265 M309.583 228.978 C 305.592 230.018,304.941 236.457,308.671 238.002 L 309.167 238.207 309.167 241.687 L 309.167 245.167 285.400 245.167 L 261.634 245.167 261.150 245.684 C 260.264 246.633,260.574 248.103,261.766 248.601 C 262.612 248.954,310.962 248.948,311.645 248.594 C 312.585 248.108,312.577 248.154,312.667 243.031 L 312.750 238.278 313.333 237.957 C 318.365 235.191,315.163 227.524,309.583 228.978 M312.100 232.567 C 312.898 233.365,312.836 234.311,311.939 235.038 C 311.099 235.718,309.606 235.150,309.404 234.074 C 309.082 232.356,310.882 231.349,312.100 232.567 M239.504 255.913 L 227.259 268.159 227.553 268.954 C 231.721 280.230,248.775 280.142,252.894 268.823 C 253.825 266.267,253.813 266.442,253.827 254.625 L 253.840 243.667 252.795 243.667 L 251.749 243.667 239.504 255.913 M311.345 250.761 C 310.495 251.130,309.343 252.134,309.039 252.772 L 308.772 253.333 284.786 253.333 L 260.800 253.333 260.212 253.921 C 259.478 254.655,259.488 255.730,260.236 256.478 L 260.674 256.917 284.633 256.960 L 308.593 257.003 308.908 257.588 C 311.305 262.039,318.046 260.377,318.053 255.333 C 318.058 251.831,314.488 249.397,311.345 250.761 M314.402 254.180 C 315.011 254.904,315.094 255.392,314.717 256.038 C 313.909 257.426,311.968 257.175,311.605 255.637 C 311.229 254.044,313.356 252.936,314.402 254.180 M267.833 261.951 C 266.421 262.465,266.226 264.341,267.495 265.216 C 267.874 265.477,268.838 265.500,279.287 265.500 L 290.667 265.500 290.667 270.422 C 290.667 277.437,290.388 277.058,295.606 277.137 L 299.144 277.190 299.426 277.621 C 302.082 281.675,308.320 279.838,308.328 275.000 C 308.336 269.933,301.396 268.153,299.233 272.668 L 298.917 273.330 296.708 273.331 L 294.500 273.333 294.500 268.400 C 294.500 262.985,294.451 262.671,293.513 262.118 C 293.037 261.837,268.584 261.678,267.833 261.951 M304.480 273.605 C 305.401 274.250,305.422 275.526,304.523 276.291 C 303.329 277.307,301.423 275.934,301.983 274.462 C 302.380 273.417,303.609 272.995,304.480 273.605 M219.824 275.592 L 217.922 277.500 220.717 277.500 L 223.512 277.500 223.306 277.125 C 223.192 276.919,223.086 276.675,223.070 276.583 C 223.054 276.492,222.845 276.009,222.604 275.510 C 222.363 275.012,222.164 274.525,222.161 274.427 C 222.133 273.478,221.734 273.677,219.824 275.592 " stroke="none" fill="#04e9c4" fill-rule="evenodd"></path><path id="path1" d="M170.750 5.950 C 170.475 5.987,169.350 6.166,168.250 6.349 C 167.150 6.532,165.800 6.756,165.250 6.847 C 163.693 7.105,157.775 8.312,155.833 8.768 C 152.692 9.505,150.603 10.019,149.500 10.326 C 148.904 10.492,147.554 10.868,146.500 11.161 C 139.414 13.133,128.042 17.138,123.083 19.406 C 122.808 19.532,121.608 20.065,120.417 20.589 C 111.940 24.323,102.015 29.626,95.167 34.082 C 90.079 37.392,86.735 39.655,84.719 41.151 C 84.153 41.572,83.482 42.067,83.230 42.250 C 81.437 43.553,76.304 47.584,74.503 49.104 C 73.650 49.824,70.645 52.414,69.595 53.333 C 64.667 57.653,56.886 65.468,52.917 70.087 C 52.367 70.726,51.836 71.325,51.737 71.417 C 51.548 71.592,49.001 74.622,48.415 75.369 C 48.323 75.487,47.588 76.390,46.781 77.375 C 45.974 78.360,45.358 79.167,45.411 79.167 C 45.464 79.167,45.787 78.989,46.129 78.771 C 46.470 78.554,48.362 77.454,50.333 76.327 C 52.304 75.200,54.916 73.691,56.136 72.972 C 57.357 72.254,58.392 71.667,58.436 71.667 C 58.480 71.667,58.926 71.404,59.428 71.083 C 59.929 70.762,60.366 70.500,60.399 70.500 C 60.431 70.500,61.761 69.741,63.354 68.814 C 64.947 67.887,66.491 66.998,66.785 66.838 C 67.080 66.679,68.505 65.427,69.952 64.055 C 71.399 62.684,72.996 61.192,73.500 60.739 C 74.004 60.287,74.454 59.879,74.500 59.832 C 74.546 59.785,75.182 59.223,75.915 58.582 C 76.647 57.941,77.342 57.326,77.460 57.216 C 77.578 57.106,78.029 56.731,78.462 56.383 C 78.895 56.035,79.362 55.642,79.500 55.510 C 79.848 55.176,85.302 50.826,85.931 50.380 L 86.446 50.016 85.984 51.383 C 84.410 56.039,83.409 61.363,82.750 68.583 C 82.406 72.356,82.414 74.356,82.773 74.218 C 82.923 74.161,84.506 73.263,86.292 72.223 C 88.078 71.184,89.575 70.333,89.619 70.333 C 89.663 70.333,89.906 70.186,90.160 70.005 C 90.413 69.824,90.658 69.714,90.703 69.759 C 90.749 69.804,90.830 69.221,90.884 68.462 C 91.307 62.531,92.678 56.198,94.594 51.319 C 100.241 36.939,111.637 31.350,127.667 35.100 C 129.776 35.593,134.240 37.032,136.250 37.866 C 136.892 38.132,137.792 38.498,138.250 38.679 C 138.708 38.859,139.683 39.291,140.416 39.638 L 141.749 40.270 142.749 39.661 C 143.300 39.326,144.275 38.748,144.917 38.377 C 147.571 36.842,149.598 35.667,149.832 35.529 C 150.928 34.882,135.533 28.639,129.417 27.251 C 126.739 26.643,126.838 26.682,127.333 26.424 C 127.678 26.244,132.941 24.151,134.083 23.739 C 134.267 23.673,134.904 23.437,135.500 23.214 C 137.205 22.577,140.343 21.486,141.167 21.244 C 141.579 21.122,143.004 20.675,144.333 20.249 C 145.662 19.822,146.862 19.444,147.000 19.407 C 149.627 18.703,150.389 18.482,150.629 18.354 C 150.787 18.269,150.974 18.194,151.044 18.187 C 151.114 18.180,151.584 17.910,152.089 17.587 C 152.594 17.264,153.039 17.000,153.078 17.000 C 153.117 17.000,154.672 16.110,156.533 15.023 C 158.394 13.936,160.704 12.597,161.667 12.049 C 162.629 11.500,164.167 10.614,165.083 10.080 C 166.830 9.062,168.295 8.217,169.417 7.580 C 172.685 5.724,172.715 5.688,170.750 5.950 M83.667 153.958 L 83.667 184.582 95.715 172.535 C 102.342 165.908,107.829 160.546,107.909 160.618 C 107.988 160.691,108.008 160.670,107.953 160.573 C 107.898 160.476,111.216 157.033,115.327 152.923 L 122.802 145.450 122.476 144.850 C 122.297 144.520,121.819 143.725,121.416 143.083 C 121.012 142.442,120.138 141.017,119.475 139.917 C 118.812 138.817,117.394 136.492,116.325 134.750 C 113.720 130.508,111.661 127.113,110.437 125.042 L 109.427 123.333 96.547 123.333 L 83.667 123.333 83.667 153.958 M140.090 124.125 C 138.406 126.844,135.500 131.739,135.500 131.858 C 135.500 131.936,135.425 132.000,135.333 132.000 C 135.242 132.000,135.167 132.107,135.167 132.238 C 135.167 132.369,135.068 132.575,134.947 132.696 C 134.607 133.038,134.113 133.836,134.193 133.915 C 134.233 133.955,136.661 131.590,139.590 128.660 L 144.915 123.333 142.748 123.333 L 140.581 123.333 140.090 124.125 M175.582 160.000 C 175.582 180.213,175.601 188.481,175.625 178.375 C 175.649 168.269,175.649 151.731,175.625 141.625 C 175.601 131.519,175.582 139.787,175.582 160.000 M141.397 160.875 C 140.823 161.848,140.786 161.931,141.078 161.583 C 141.416 161.180,141.708 160.667,141.599 160.667 C 141.555 160.667,141.464 160.760,141.397 160.875 M139.564 163.708 C 138.990 164.682,138.952 164.765,139.245 164.417 C 139.583 164.013,139.875 163.500,139.766 163.500 C 139.722 163.500,139.631 163.594,139.564 163.708 M138.333 165.667 C 138.138 165.942,138.015 166.167,138.061 166.167 C 138.106 166.167,138.304 165.942,138.500 165.667 C 138.696 165.392,138.819 165.167,138.773 165.167 C 138.727 165.167,138.529 165.392,138.333 165.667 M136.615 168.292 C 136.018 169.252,135.975 169.333,136.059 169.333 C 136.103 169.333,136.369 168.958,136.651 168.500 C 136.933 168.042,137.128 167.667,137.084 167.667 C 137.040 167.667,136.829 167.948,136.615 168.292 M135.713 169.708 C 135.387 170.130,135.276 170.388,135.473 170.266 C 135.671 170.144,136.066 169.500,135.943 169.500 C 135.905 169.500,135.802 169.594,135.713 169.708 M134.064 172.208 C 133.490 173.182,133.452 173.265,133.745 172.917 C 134.083 172.513,134.375 172.000,134.266 172.000 C 134.222 172.000,134.131 172.094,134.064 172.208 M132.833 174.167 C 132.638 174.442,132.515 174.667,132.561 174.667 C 132.606 174.667,132.804 174.442,133.000 174.167 C 133.196 173.892,133.319 173.667,133.273 173.667 C 133.227 173.667,133.029 173.892,132.833 174.167 M130.213 178.208 C 129.887 178.630,129.776 178.888,129.973 178.766 C 130.171 178.644,130.566 178.000,130.443 178.000 C 130.405 178.000,130.302 178.094,130.213 178.208 M127.333 182.667 C 127.138 182.942,127.015 183.167,127.061 183.167 C 127.106 183.167,127.304 182.942,127.500 182.667 C 127.696 182.392,127.819 182.167,127.773 182.167 C 127.727 182.167,127.529 182.392,127.333 182.667 M89.721 196.625 C 93.096 196.650,98.571 196.650,101.887 196.625 C 105.203 196.600,102.442 196.579,95.750 196.579 C 89.058 196.579,86.345 196.600,89.721 196.625 M147.863 196.625 C 151.225 196.650,156.775 196.650,160.196 196.625 C 163.617 196.600,160.867 196.579,154.083 196.579 C 147.300 196.579,144.501 196.600,147.863 196.625 M178.281 251.125 C 180.039 251.152,182.964 251.152,184.781 251.125 C 186.597 251.098,185.158 251.076,181.583 251.076 C 178.008 251.076,176.522 251.098,178.281 251.125 M354.658 319.152 C 353.598 319.776,352.398 320.474,351.991 320.703 C 351.182 321.159,347.116 323.511,340.500 327.353 L 336.250 329.821 333.319 332.702 C 329.161 336.789,325.682 340.046,323.833 341.583 C 323.421 341.926,323.046 342.255,323.000 342.314 C 322.954 342.374,321.942 343.235,320.750 344.228 C 317.939 346.570,318.100 346.438,316.749 347.496 C 316.108 347.998,315.546 348.452,315.500 348.504 C 315.454 348.556,315.154 348.781,314.833 349.004 C 314.512 349.226,314.105 349.540,313.929 349.702 C 313.476 350.117,313.478 350.080,314.006 348.500 C 314.266 347.721,314.713 346.146,314.998 345.000 C 315.694 342.199,315.797 341.749,316.005 340.583 C 316.104 340.033,316.258 339.171,316.348 338.667 C 316.786 336.206,317.497 328.825,317.499 326.714 C 317.500 325.450,317.954 325.307,313.190 328.079 L 309.417 330.274 309.314 329.762 C 309.237 329.382,309.204 329.507,309.185 330.250 C 309.097 333.737,307.797 341.263,306.666 344.833 C 306.565 345.154,306.452 345.529,306.417 345.667 C 305.882 347.723,303.594 352.863,302.448 354.583 C 297.947 361.340,293.113 364.504,285.261 365.833 C 279.002 366.892,268.170 364.541,259.128 360.161 C 258.600 359.905,258.130 359.758,258.082 359.835 C 258.035 359.911,257.341 360.342,256.540 360.792 C 255.739 361.243,254.408 362.007,253.583 362.490 C 252.758 362.974,251.611 363.633,251.033 363.955 C 250.067 364.493,250.008 364.558,250.297 364.760 C 250.899 365.181,257.659 368.500,257.916 368.500 C 257.957 368.500,258.387 368.681,258.870 368.902 C 262.289 370.465,270.905 373.167,272.470 373.167 C 273.319 373.167,272.833 373.511,270.869 374.302 C 268.812 375.131,267.266 375.746,266.583 376.009 C 262.835 377.450,255.820 379.774,251.833 380.895 C 247.289 382.172,245.486 382.658,244.917 382.759 C 244.550 382.824,244.175 382.932,244.083 382.999 C 243.992 383.067,243.579 383.309,243.167 383.537 C 242.466 383.925,240.778 384.901,236.750 387.244 C 235.833 387.777,233.883 388.904,232.417 389.748 C 230.950 390.593,228.737 391.868,227.500 392.582 C 226.262 393.297,224.912 394.068,224.500 394.297 C 223.528 394.835,223.530 394.833,224.188 394.740 C 228.342 394.157,231.930 393.636,232.667 393.509 C 240.223 392.205,245.394 391.060,252.417 389.132 C 254.067 388.679,255.829 388.172,256.333 388.005 C 256.837 387.837,258.037 387.461,259.000 387.168 C 265.627 385.154,273.874 381.994,281.667 378.485 C 283.596 377.616,290.216 374.315,292.255 373.204 C 293.261 372.657,294.496 371.987,295.000 371.715 C 300.814 368.583,308.884 363.422,315.649 358.512 C 317.345 357.281,318.849 356.178,318.991 356.062 C 319.134 355.946,320.450 354.898,321.917 353.734 C 324.198 351.922,327.394 349.293,327.667 349.005 C 327.712 348.956,328.275 348.467,328.917 347.918 C 334.086 343.492,340.473 337.194,346.254 330.822 C 349.593 327.142,357.054 317.933,356.635 318.009 C 356.607 318.015,355.717 318.529,354.658 319.152 " stroke="none" fill="#0439ca" fill-rule="evenodd"></path><path id="path2" d="M297.950 34.633 L 294.014 36.915 294.465 37.285 C 294.714 37.488,294.992 37.659,295.083 37.665 C 295.639 37.700,309.046 46.502,311.000 48.115 C 311.137 48.229,311.887 48.790,312.667 49.362 C 313.446 49.934,314.121 50.447,314.167 50.501 C 314.212 50.555,314.512 50.780,314.833 51.000 C 315.154 51.220,315.454 51.444,315.500 51.496 C 315.546 51.548,316.108 52.000,316.750 52.500 C 317.392 53.000,317.954 53.448,318.000 53.496 C 318.046 53.545,318.608 54.010,319.250 54.530 C 319.892 55.050,320.567 55.612,320.750 55.779 C 320.933 55.946,321.496 56.420,322.000 56.831 C 322.504 57.242,322.954 57.627,323.000 57.686 C 323.046 57.745,323.421 58.074,323.833 58.417 C 328.527 62.318,337.315 71.147,342.162 76.833 C 342.826 77.612,343.531 78.438,343.727 78.667 C 345.255 80.450,346.797 82.327,347.834 83.667 C 348.508 84.537,349.121 85.275,349.196 85.306 C 349.272 85.336,349.333 85.433,349.333 85.521 C 349.333 85.609,349.483 85.841,349.665 86.037 C 350.124 86.529,350.098 86.528,348.466 85.981 C 347.669 85.713,345.981 85.228,344.716 84.902 C 342.632 84.365,341.692 84.165,338.833 83.654 C 337.571 83.429,332.910 82.885,331.049 82.747 L 329.516 82.633 327.216 83.964 C 325.951 84.696,324.654 85.443,324.333 85.624 C 324.012 85.805,322.737 86.542,321.500 87.261 C 320.262 87.980,318.457 89.022,317.487 89.576 L 315.723 90.583 320.820 90.522 C 341.694 90.273,355.800 95.184,362.263 104.950 C 362.760 105.701,363.167 106.395,363.167 106.491 C 363.167 106.767,363.527 106.695,364.250 106.275 C 367.747 104.242,370.260 102.833,370.392 102.833 C 370.480 102.833,370.427 102.696,370.275 102.528 C 370.124 102.360,370.049 102.173,370.111 102.111 C 370.172 102.050,370.152 102.000,370.066 102.000 C 369.980 102.000,369.762 101.719,369.581 101.375 C 369.401 101.031,369.207 100.712,369.152 100.667 C 368.969 100.517,368.595 99.753,368.635 99.613 C 368.657 99.537,368.598 99.523,368.504 99.581 C 368.341 99.681,368.256 99.440,368.327 99.083 C 368.346 98.992,368.310 98.968,368.247 99.031 C 368.184 99.093,367.699 98.606,367.169 97.947 C 366.019 96.520,363.312 93.875,361.917 92.815 C 359.876 91.264,358.417 90.337,355.987 89.049 L 355.058 88.556 357.343 87.250 L 359.629 85.944 358.868 84.847 C 358.450 84.244,357.839 83.413,357.512 83.002 C 357.185 82.590,356.859 82.178,356.789 82.085 C 355.697 80.649,354.345 78.859,354.083 78.503 C 353.505 77.714,349.436 72.770,348.924 72.234 C 348.828 72.133,348.300 71.537,347.750 70.908 C 345.567 68.412,345.243 68.048,344.346 67.092 C 339.187 61.592,334.573 57.065,330.250 53.259 C 329.333 52.452,328.358 51.592,328.083 51.348 C 327.464 50.799,323.636 47.605,322.741 46.892 C 322.379 46.603,321.446 45.870,320.667 45.262 C 319.887 44.654,319.137 44.063,319.000 43.949 C 318.015 43.133,310.404 37.713,308.718 36.626 C 306.096 34.936,303.338 33.194,302.651 32.795 L 301.885 32.350 297.950 34.633 M328.127 82.618 C 328.334 82.658,328.634 82.656,328.794 82.615 C 328.953 82.573,328.783 82.540,328.417 82.542 C 328.050 82.544,327.920 82.578,328.127 82.618 M371.333 104.705 C 371.333 104.750,371.546 105.304,371.807 105.935 C 373.992 111.235,374.685 119.434,373.477 125.696 C 373.303 126.602,373.321 126.707,373.915 128.196 C 376.807 135.444,378.421 139.960,379.980 145.167 C 380.268 146.129,380.573 147.142,380.659 147.417 C 381.502 150.138,383.255 157.109,384.094 161.083 C 384.669 163.804,385.663 169.359,386.003 171.750 C 386.107 172.483,386.262 173.571,386.348 174.167 C 386.907 178.040,387.733 186.561,387.687 187.967 L 387.663 188.685 388.790 188.059 C 389.410 187.715,391.154 186.716,392.667 185.839 L 395.417 184.244 395.436 183.480 C 395.459 182.537,394.821 176.409,394.344 173.000 C 393.938 170.098,393.793 169.141,393.564 167.833 C 393.427 167.054,393.211 165.817,393.084 165.083 C 392.078 159.289,390.192 151.107,388.723 146.167 C 388.491 145.387,388.168 144.300,388.005 143.750 C 385.409 134.991,382.227 126.587,378.033 117.417 C 375.810 112.557,371.333 104.062,371.333 104.705 M3.732 200.000 C 3.732 201.237,3.758 201.744,3.790 201.125 C 3.822 200.506,3.822 199.494,3.790 198.875 C 3.758 198.256,3.732 198.762,3.732 200.000 M7.795 202.138 L 3.839 204.417 3.920 207.333 C 4.056 212.242,4.509 217.994,5.246 224.167 C 6.063 231.009,7.318 238.053,9.060 245.583 C 9.413 247.109,10.804 252.446,11.167 253.667 C 12.739 258.958,13.859 262.428,15.270 266.383 C 16.410 269.575,18.571 275.074,19.378 276.833 C 19.651 277.429,20.075 278.404,20.320 279.000 C 21.310 281.406,21.251 281.333,21.881 280.931 C 22.341 280.638,23.412 280.025,24.875 279.218 C 25.890 278.657,26.000 278.546,26.000 278.077 C 26.000 277.483,26.460 274.069,26.602 273.615 C 26.653 273.449,26.561 273.037,26.397 272.699 C 26.233 272.360,25.973 271.746,25.820 271.333 C 25.666 270.921,24.942 269.046,24.211 267.167 C 21.801 260.978,19.467 253.618,17.498 246.000 C 16.223 241.068,14.684 233.413,14.014 228.667 C 13.930 228.071,13.746 226.796,13.606 225.833 C 13.375 224.254,13.159 222.423,12.672 217.917 C 12.390 215.313,11.989 208.409,11.867 204.054 L 11.750 199.859 7.795 202.138 M182.294 206.157 L 183.839 206.250 171.837 218.246 L 159.836 230.242 159.255 231.663 C 158.697 233.027,157.331 236.300,156.957 237.167 C 156.859 237.396,156.765 237.621,156.750 237.667 C 156.690 237.846,156.300 238.770,156.084 239.247 C 155.958 239.524,155.582 240.425,155.247 241.250 C 154.912 242.075,154.536 242.975,154.412 243.250 C 154.288 243.525,153.612 245.137,152.911 246.833 C 152.210 248.529,151.536 250.142,151.414 250.417 C 151.292 250.692,150.958 251.479,150.672 252.167 C 150.385 252.854,150.008 253.754,149.833 254.167 C 149.659 254.579,149.281 255.479,148.995 256.167 C 148.709 256.854,148.330 257.735,148.154 258.123 C 147.978 258.512,147.833 258.873,147.833 258.926 C 147.833 258.978,147.646 259.431,147.417 259.932 C 147.188 260.433,147.000 260.883,147.000 260.932 C 147.000 260.981,146.813 261.431,146.583 261.932 C 146.354 262.433,146.164 262.897,146.161 262.963 C 146.158 263.029,146.010 263.383,145.833 263.750 C 145.656 264.117,145.509 264.474,145.506 264.543 C 145.503 264.613,145.356 264.988,145.180 265.377 C 145.003 265.765,144.625 266.646,144.338 267.333 C 144.052 268.021,143.675 268.921,143.500 269.333 C 143.325 269.746,142.949 270.646,142.665 271.333 C 142.380 272.021,142.077 272.733,141.992 272.917 C 141.581 273.804,140.167 277.253,140.167 277.370 C 140.167 277.442,145.883 277.483,152.870 277.459 L 165.573 277.417 167.330 272.833 L 169.088 268.250 181.502 268.210 L 193.917 268.169 194.352 269.293 C 194.592 269.911,195.409 272.010,196.168 273.958 L 197.548 277.500 207.735 277.500 L 217.922 277.500 219.869 275.542 L 221.816 273.583 221.232 272.167 C 220.911 271.387,220.546 270.525,220.420 270.250 C 220.295 269.975,219.924 269.094,219.596 268.292 C 219.268 267.490,218.732 266.177,218.404 265.375 C 218.076 264.573,217.706 263.692,217.580 263.417 C 217.454 263.142,216.931 261.904,216.416 260.667 C 215.125 257.562,214.689 256.532,214.319 255.710 C 214.143 255.322,214.000 254.947,213.999 254.877 C 213.998 254.807,213.894 254.550,213.766 254.306 C 213.639 254.062,213.382 253.462,213.194 252.973 C 212.901 252.205,212.059 250.196,211.461 248.833 C 211.360 248.604,211.265 248.379,211.250 248.333 C 211.181 248.132,210.931 247.527,210.628 246.833 C 210.449 246.421,210.202 245.821,210.080 245.500 C 209.958 245.179,209.602 244.317,209.288 243.583 C 208.974 242.850,206.898 237.900,204.675 232.583 C 197.371 215.117,196.801 213.757,196.506 213.083 C 196.345 212.717,195.621 210.975,194.898 209.212 L 193.583 206.007 187.167 206.035 C 183.637 206.051,181.445 206.106,182.294 206.157 M237.750 206.182 C 232.217 207.413,228.361 211.068,226.866 216.500 C 226.656 217.264,226.603 219.281,226.547 228.625 L 226.481 239.833 240.157 239.833 L 253.833 239.833 253.832 228.875 L 253.830 217.917 253.424 216.333 C 251.647 209.412,244.382 204.706,237.750 206.182 M182.667 237.125 C 183.244 238.660,184.534 242.092,185.533 244.750 C 186.532 247.408,187.491 249.940,187.665 250.375 L 187.982 251.167 181.574 251.167 C 175.265 251.167,174.829 251.132,175.342 250.667 C 175.392 250.621,175.557 250.246,175.708 249.833 C 176.658 247.237,177.705 244.437,178.061 243.542 C 178.289 242.969,178.434 242.500,178.384 242.500 C 178.334 242.500,178.386 242.387,178.500 242.250 C 178.614 242.112,178.642 241.999,178.562 241.997 C 178.482 241.996,178.496 241.940,178.592 241.872 C 178.688 241.805,179.038 241.000,179.368 240.083 C 180.509 236.918,181.178 235.082,181.282 234.833 C 181.339 234.696,181.374 234.527,181.360 234.458 C 181.168 233.554,181.839 234.921,182.667 237.125 M226.501 254.042 C 226.501 264.334,226.594 266.373,227.125 267.809 C 227.240 268.119,228.744 266.673,239.502 255.914 L 251.749 243.667 239.125 243.667 L 226.500 243.667 226.501 254.042 M134.367 248.791 C 135.164 248.821,136.514 248.821,137.367 248.791 C 138.219 248.761,137.567 248.736,135.917 248.736 C 134.267 248.735,133.569 248.760,134.367 248.791 M134.917 255.167 L 133.089 257.000 136.420 256.983 C 140.254 256.964,140.449 256.929,140.956 256.177 C 141.509 255.357,141.451 254.648,140.772 253.929 L 140.211 253.333 138.477 253.333 L 136.744 253.333 134.917 255.167 M126.417 263.667 L 124.589 265.500 128.875 265.500 L 133.161 265.500 133.670 265.042 C 134.598 264.205,134.497 262.798,133.462 262.167 C 132.986 261.877,132.621 261.835,130.580 261.834 L 128.244 261.833 126.417 263.667 M36.417 293.362 C 35.739 293.985,29.721 297.260,29.529 297.111 C 29.408 297.016,29.471 297.215,29.671 297.553 C 29.870 297.891,30.102 298.210,30.186 298.262 C 30.270 298.314,30.296 298.426,30.243 298.512 C 30.190 298.597,30.226 298.667,30.323 298.667 C 30.421 298.667,30.500 298.736,30.500 298.821 C 30.500 298.984,31.666 301.023,31.842 301.167 C 31.898 301.212,32.049 301.494,32.179 301.792 C 32.309 302.090,32.471 302.333,32.541 302.333 C 32.610 302.333,32.667 302.420,32.667 302.526 C 32.667 302.632,33.141 303.438,33.721 304.317 C 34.301 305.197,35.290 306.704,35.918 307.667 C 36.547 308.629,38.079 310.869,39.322 312.644 C 40.566 314.419,41.696 316.031,41.833 316.227 C 42.719 317.492,48.461 324.822,48.836 325.167 C 48.886 325.212,49.518 325.962,50.241 326.833 C 50.964 327.704,51.637 328.492,51.736 328.583 C 51.836 328.675,52.367 329.274,52.917 329.913 C 55.074 332.424,57.434 334.923,61.256 338.744 C 65.479 342.968,67.614 344.966,71.323 348.167 C 74.414 350.833,74.537 350.937,76.586 352.599 C 78.098 353.825,82.100 356.928,83.230 357.750 C 83.482 357.933,84.077 358.376,84.552 358.733 C 85.371 359.348,87.226 360.622,88.095 361.165 C 88.555 361.453,89.258 361.096,95.481 357.414 L 96.211 356.981 95.186 356.282 C 92.905 354.728,87.467 350.807,85.667 349.420 C 83.636 347.854,79.881 344.850,79.486 344.473 C 79.356 344.349,78.837 343.912,78.333 343.502 C 77.829 343.091,77.379 342.716,77.333 342.669 C 77.287 342.622,76.650 342.059,75.917 341.418 C 73.826 339.590,71.912 337.821,68.525 334.583 C 66.348 332.503,61.107 326.970,58.582 324.085 C 57.941 323.353,57.326 322.658,57.216 322.540 C 57.106 322.422,56.731 321.971,56.383 321.538 C 56.035 321.105,55.647 320.642,55.521 320.510 C 55.249 320.223,51.472 315.537,50.744 314.583 C 49.903 313.481,49.905 313.470,50.864 313.816 C 52.934 314.561,56.461 315.494,58.857 315.929 C 59.623 316.068,60.663 316.257,61.167 316.348 C 62.677 316.623,65.769 316.987,68.250 317.184 L 70.583 317.368 74.333 315.207 C 76.396 314.019,78.671 312.698,79.389 312.273 C 80.107 311.848,80.719 311.500,80.750 311.500 C 80.798 311.500,84.199 309.516,84.278 309.443 C 84.293 309.428,81.968 309.443,79.111 309.476 C 70.541 309.575,63.779 308.899,57.417 307.309 C 49.564 305.347,43.179 301.830,39.416 297.394 C 38.573 296.400,36.834 293.881,36.650 293.387 C 36.609 293.277,36.519 293.267,36.417 293.362 M85.794 309.285 C 86.001 309.324,86.301 309.323,86.460 309.281 C 86.620 309.239,86.450 309.207,86.083 309.209 C 85.717 309.211,85.586 309.245,85.794 309.285 M71.294 317.451 C 71.501 317.491,71.801 317.490,71.960 317.448 C 72.120 317.406,71.950 317.374,71.583 317.375 C 71.217 317.377,71.086 317.411,71.294 317.451 " stroke="none" fill="#04d3d0" fill-rule="evenodd"></path><path id="path3" d="M190.583 4.012 C 187.625 4.150,181.646 4.594,179.583 4.828 C 178.850 4.911,177.500 5.060,176.583 5.159 C 175.667 5.258,174.392 5.427,173.750 5.533 C 173.108 5.640,172.433 5.716,172.250 5.701 C 172.050 5.686,172.008 5.715,172.144 5.774 C 172.353 5.866,171.860 6.192,169.417 7.580 C 168.295 8.217,166.830 9.062,165.083 10.080 C 164.167 10.614,162.629 11.500,161.667 12.048 C 160.704 12.596,158.604 13.811,157.000 14.748 C 155.396 15.685,153.746 16.639,153.333 16.869 C 150.734 18.319,150.767 18.346,154.101 17.513 C 163.717 15.108,171.517 13.770,182.333 12.672 C 190.753 11.817,202.820 11.648,212.167 12.256 C 215.850 12.495,216.996 12.598,221.500 13.091 C 224.960 13.470,228.853 14.043,234.417 14.994 C 235.248 15.136,235.255 15.133,237.500 13.836 C 238.737 13.121,240.133 12.322,240.601 12.060 C 245.346 9.405,245.796 9.090,245.042 8.957 C 244.790 8.912,243.349 8.601,241.840 8.266 C 238.155 7.446,233.425 6.584,229.000 5.926 C 225.306 5.377,224.242 5.246,218.750 4.670 C 211.729 3.933,198.749 3.629,190.583 4.012 M149.083 35.972 C 148.625 36.228,147.500 36.875,146.583 37.410 C 145.667 37.945,144.279 38.751,143.500 39.201 C 141.640 40.275,141.670 40.199,142.870 40.800 C 143.870 41.300,145.131 41.981,147.195 43.134 C 147.715 43.425,148.465 43.837,148.862 44.050 C 149.998 44.661,154.899 47.758,156.917 49.141 C 157.925 49.832,159.113 50.645,159.558 50.948 C 160.440 51.550,166.674 56.213,167.314 56.750 C 167.532 56.933,167.795 57.159,167.897 57.252 C 168.000 57.345,168.421 57.683,168.833 58.002 C 169.245 58.322,169.732 58.708,169.916 58.861 C 170.100 59.014,170.587 59.417,171.000 59.756 C 172.322 60.845,176.353 64.311,176.500 64.485 C 176.546 64.539,177.183 65.107,177.917 65.747 C 179.233 66.896,180.050 67.644,182.830 70.247 C 185.090 72.364,193.738 81.046,195.907 83.377 C 197.838 85.452,197.896 85.498,198.271 85.252 C 198.482 85.113,198.977 84.820,199.369 84.600 C 199.762 84.380,201.183 83.561,202.528 82.781 C 203.872 82.000,205.034 81.409,205.111 81.469 C 205.187 81.528,204.912 81.209,204.500 80.758 C 204.088 80.307,203.675 79.850,203.583 79.742 C 202.714 78.713,198.093 73.925,194.584 70.417 C 190.437 66.271,188.845 64.729,186.237 62.333 C 183.836 60.127,183.388 59.722,182.083 58.582 C 181.350 57.941,180.713 57.378,180.667 57.331 C 180.621 57.283,179.833 56.610,178.917 55.833 C 178.000 55.057,177.213 54.377,177.167 54.323 C 176.989 54.112,170.997 49.352,169.416 48.167 C 168.500 47.479,167.712 46.877,167.667 46.829 C 167.413 46.562,164.783 44.707,161.250 42.302 C 158.972 40.751,154.081 37.658,153.083 37.138 C 152.808 36.995,152.029 36.568,151.352 36.189 C 149.896 35.374,150.115 35.395,149.083 35.972 M63.833 68.527 C 62.137 69.531,60.637 70.399,60.500 70.458 C 60.362 70.516,59.860 70.811,59.383 71.115 C 58.906 71.418,58.480 71.667,58.436 71.667 C 58.392 71.667,57.357 72.254,56.136 72.972 C 54.916 73.691,52.304 75.200,50.333 76.327 C 45.890 78.867,45.513 79.103,45.019 79.646 C 44.590 80.118,40.773 85.218,39.827 86.583 C 39.510 87.042,39.210 87.454,39.161 87.500 C 39.113 87.546,38.084 89.083,36.876 90.917 C 33.971 95.324,34.230 95.031,33.417 94.835 C 23.941 92.552,15.072 102.835,18.331 112.325 C 19.016 114.323,20.986 117.497,21.542 117.499 C 21.796 117.501,21.650 118.016,21.000 119.417 C 20.633 120.207,20.333 120.884,20.333 120.922 C 20.333 120.982,19.952 121.859,19.249 123.418 C 17.375 127.571,14.096 136.676,12.090 143.302 C 11.807 144.236,11.230 144.508,18.500 140.278 C 19.279 139.825,20.254 139.266,20.667 139.036 C 22.122 138.226,22.264 138.068,22.749 136.714 C 23.684 134.105,26.003 128.139,26.493 127.083 C 26.878 126.254,27.500 124.817,27.500 124.757 C 27.500 124.721,27.771 124.104,28.103 123.387 C 28.434 122.670,28.772 121.910,28.853 121.698 C 28.992 121.332,29.054 121.318,30.126 121.424 C 34.041 121.810,38.632 119.821,41.333 116.568 C 45.127 111.999,45.371 105.083,41.909 100.231 L 41.157 99.176 41.603 98.463 C 43.631 95.227,47.498 89.683,50.063 86.333 C 52.277 83.443,56.770 77.883,57.336 77.333 C 57.383 77.287,57.870 76.726,58.419 76.085 C 58.968 75.444,59.492 74.838,59.583 74.738 C 60.351 73.899,63.153 70.872,63.417 70.596 C 63.600 70.405,64.530 69.443,65.484 68.458 C 66.438 67.473,67.150 66.674,67.067 66.684 C 66.985 66.693,65.529 67.523,63.833 68.527 M90.167 70.000 C 89.938 70.179,89.702 70.328,89.644 70.330 C 89.586 70.332,88.078 71.184,86.292 72.223 C 84.506 73.263,82.931 74.158,82.790 74.211 C 82.106 74.474,82.282 82.909,83.172 92.500 C 83.507 96.114,84.517 103.457,85.166 107.000 C 85.258 107.504,85.449 108.554,85.589 109.333 C 86.213 112.787,87.333 114.000,89.899 114.000 C 93.281 114.000,94.350 111.758,93.357 106.750 C 93.022 105.061,92.322 100.687,91.998 98.250 C 91.900 97.517,91.745 96.354,91.653 95.667 C 90.823 89.435,90.455 82.933,90.533 75.875 C 90.571 72.460,90.598 69.668,90.593 69.670 C 90.588 69.672,90.396 69.821,90.167 70.000 M139.287 128.959 C 136.191 132.053,133.542 134.808,133.401 135.083 C 133.259 135.358,133.047 135.695,132.928 135.833 C 132.810 135.971,132.487 136.496,132.210 137.000 C 131.589 138.131,131.119 138.918,129.696 141.204 C 129.084 142.187,127.808 144.268,126.860 145.829 C 125.912 147.389,125.075 148.704,125.000 148.750 C 124.877 148.826,124.535 148.319,123.588 146.658 C 123.402 146.333,123.159 145.920,123.049 145.741 C 122.865 145.445,121.127 147.137,103.257 165.000 L 83.667 184.583 83.667 190.541 L 83.667 196.500 95.750 196.500 L 107.833 196.500 107.844 178.458 C 107.850 167.559,107.914 160.565,108.005 160.791 C 108.088 160.996,108.476 161.643,108.869 162.229 C 109.943 163.829,112.116 167.184,112.911 168.470 C 113.091 168.762,113.297 169.000,113.369 169.000 C 113.441 169.000,113.500 169.094,113.500 169.208 C 113.499 169.323,113.824 169.904,114.221 170.500 C 114.618 171.096,115.327 172.183,115.797 172.917 C 116.268 173.650,116.712 174.325,116.785 174.417 C 116.857 174.508,117.023 174.790,117.153 175.042 C 117.283 175.294,117.452 175.500,117.528 175.500 C 117.604 175.500,117.667 175.593,117.667 175.706 C 117.667 175.819,117.995 176.401,118.397 176.998 C 120.089 179.510,122.428 183.116,122.643 183.542 C 122.771 183.794,122.941 184.000,123.021 184.000 C 123.101 184.000,123.167 184.100,123.167 184.223 C 123.167 184.607,124.504 186.333,124.801 186.332 C 124.958 186.331,125.260 186.018,125.483 185.624 C 125.703 185.235,126.347 184.204,126.915 183.333 C 127.483 182.463,128.309 181.188,128.751 180.500 C 129.193 179.813,129.968 178.612,130.473 177.833 C 130.978 177.054,131.875 175.667,132.466 174.750 C 133.057 173.833,133.858 172.596,134.245 172.000 C 134.633 171.404,135.307 170.354,135.745 169.667 C 136.182 168.979,136.737 168.131,136.978 167.782 C 137.219 167.433,137.567 166.901,137.750 166.600 C 138.412 165.511,139.093 164.464,139.584 163.780 C 139.859 163.397,140.459 162.458,140.917 161.694 L 141.750 160.305 141.792 178.403 L 141.835 196.500 154.084 196.500 L 166.333 196.500 166.333 159.917 L 166.333 123.333 155.625 123.334 L 144.917 123.336 139.287 128.959 M175.667 160.000 L 175.667 196.667 195.378 196.667 L 215.090 196.667 225.162 186.590 L 235.233 176.513 236.492 176.457 C 237.184 176.426,229.181 176.385,218.708 176.367 L 199.667 176.333 199.667 172.417 L 199.667 168.500 217.583 168.500 L 235.500 168.500 235.500 159.667 L 235.500 150.833 217.583 150.833 L 199.667 150.833 199.667 147.167 L 199.667 143.500 218.917 143.500 L 238.167 143.500 238.167 133.417 L 238.167 123.333 206.917 123.333 L 175.667 123.333 175.667 160.000 M246.167 144.458 L 246.167 165.583 266.743 145.007 C 278.060 133.690,287.298 124.409,287.272 124.383 C 287.139 124.250,284.091 123.825,281.616 123.594 C 279.297 123.378,276.002 123.333,262.491 123.333 L 246.167 123.333 246.167 144.458 M388.583 248.938 C 385.580 250.662,381.707 252.911,381.054 253.310 C 380.438 253.687,380.316 253.871,379.990 254.910 C 378.346 260.156,375.573 267.957,374.418 270.583 C 374.297 270.858,373.806 272.021,373.326 273.167 C 372.246 275.749,371.981 276.352,371.064 278.311 C 370.662 279.169,370.333 279.902,370.333 279.939 C 370.333 280.297,365.390 289.785,363.528 293.000 C 363.023 293.871,362.422 294.921,362.190 295.333 C 360.808 297.798,357.043 303.640,354.025 308.000 C 352.428 310.309,346.987 317.543,346.504 318.000 C 346.455 318.046,345.990 318.608,345.470 319.250 C 344.950 319.892,344.388 320.568,344.221 320.753 C 344.054 320.937,343.543 321.537,343.087 322.086 C 342.631 322.635,342.218 323.121,342.170 323.167 C 342.122 323.212,341.828 323.550,341.516 323.917 C 340.474 325.143,338.272 327.567,336.671 329.250 C 335.799 330.167,335.385 330.643,335.751 330.309 C 336.117 329.975,338.292 328.617,340.583 327.293 C 342.875 325.968,346.212 324.038,348.000 323.003 C 349.787 321.968,351.512 320.972,351.833 320.791 C 352.154 320.610,353.429 319.874,354.667 319.156 L 356.917 317.849 358.638 315.466 C 360.222 313.274,362.111 310.604,362.506 310.000 C 362.596 309.862,363.093 309.112,363.610 308.333 C 365.872 304.924,368.681 300.365,370.541 297.083 C 371.183 295.950,371.433 295.496,373.250 292.167 C 374.438 289.988,376.850 285.155,377.860 282.928 C 378.320 281.914,378.872 280.708,379.086 280.250 C 380.222 277.824,383.667 269.460,383.667 269.128 C 383.667 269.040,383.772 268.731,383.901 268.442 C 384.482 267.137,386.907 259.967,387.883 256.667 C 388.114 255.887,388.493 254.612,388.726 253.833 C 388.959 253.054,389.199 252.192,389.259 251.917 C 389.319 251.642,389.502 250.929,389.666 250.333 C 390.349 247.858,390.384 247.904,388.583 248.938 M309.083 285.980 C 306.570 286.640,305.710 288.676,306.417 292.299 C 306.997 295.269,307.663 299.431,308.064 302.583 C 308.614 306.915,308.680 307.479,308.835 309.250 C 309.379 315.444,309.533 319.404,309.441 324.782 L 309.347 330.313 311.382 329.132 C 312.501 328.482,314.204 327.489,315.167 326.925 C 316.129 326.361,317.048 325.850,317.208 325.789 C 318.192 325.413,317.144 308.045,315.503 297.500 C 315.170 295.363,314.847 293.400,314.666 292.417 C 314.565 291.867,314.378 290.803,314.251 290.052 C 313.725 286.955,311.637 285.309,309.083 285.980 M201.250 314.891 C 196.421 317.702,194.958 318.494,194.785 318.391 C 194.568 318.261,195.338 319.151,196.823 320.746 C 197.333 321.293,198.271 322.306,198.907 322.996 C 199.543 323.685,202.748 326.930,206.029 330.205 C 211.795 335.962,211.988 336.176,211.823 336.610 C 207.343 348.393,219.791 359.300,230.857 353.287 L 231.797 352.776 232.440 353.281 C 234.112 354.593,237.839 357.159,242.500 360.208 C 243.951 361.157,246.691 362.789,248.728 363.917 L 249.872 364.550 250.728 364.114 C 251.198 363.874,252.408 363.189,253.417 362.592 C 254.425 361.995,255.866 361.165,256.618 360.748 C 257.371 360.331,258.023 359.931,258.068 359.858 C 258.113 359.786,257.269 359.274,256.193 358.721 C 254.444 357.822,253.601 357.368,251.689 356.298 C 250.153 355.438,247.213 353.640,245.500 352.514 C 243.293 351.064,239.342 348.352,239.056 348.092 C 238.950 347.996,238.403 347.587,237.840 347.183 C 237.277 346.780,236.848 346.367,236.886 346.267 C 238.065 343.133,237.873 339.074,236.394 335.844 C 233.371 329.242,224.989 326.267,218.493 329.490 L 217.468 329.999 217.001 329.624 C 216.404 329.146,205.572 318.276,203.549 316.125 C 202.708 315.231,201.997 314.501,201.968 314.502 C 201.940 314.502,201.617 314.678,201.250 314.891 M155.583 383.474 C 155.125 383.732,153.212 384.831,151.333 385.917 C 149.454 387.004,147.590 388.078,147.190 388.304 C 146.650 388.610,146.524 388.750,146.700 388.849 C 147.029 389.033,151.980 390.351,154.417 390.904 C 160.020 392.174,161.772 392.538,164.917 393.084 C 165.650 393.211,166.887 393.427,167.667 393.564 C 168.446 393.700,169.646 393.891,170.333 393.987 C 171.021 394.083,172.333 394.273,173.250 394.408 C 174.167 394.543,175.667 394.736,176.583 394.837 C 177.500 394.938,178.887 395.092,179.667 395.180 C 190.435 396.398,208.443 396.471,218.667 395.339 C 224.256 394.720,223.269 395.028,227.500 392.583 C 228.737 391.868,230.950 390.593,232.417 389.748 C 233.883 388.904,235.833 387.777,236.750 387.244 C 237.667 386.710,239.317 385.751,240.417 385.111 C 241.517 384.471,242.770 383.756,243.201 383.522 C 244.220 382.969,244.109 382.903,242.739 383.247 C 239.514 384.056,232.063 385.490,228.417 386.004 C 227.683 386.108,226.596 386.262,226.000 386.347 C 216.228 387.744,203.480 388.402,193.667 388.018 C 186.918 387.754,184.514 387.575,177.667 386.827 C 172.627 386.277,162.840 384.611,158.583 383.578 C 158.033 383.445,157.417 383.312,157.213 383.283 C 157.009 383.254,156.790 383.179,156.727 383.115 C 156.555 382.944,156.491 382.964,155.583 383.474 " stroke="none" fill="#0460d5" fill-rule="evenodd"></path><path id="path4" d="M243.412 10.437 C 242.223 11.136,241.025 11.830,240.750 11.979 C 237.033 13.997,235.349 15.088,235.790 15.193 C 236.043 15.253,236.775 15.418,237.417 15.560 C 241.461 16.455,244.698 17.196,245.667 17.448 C 251.816 19.046,255.214 20.043,260.083 21.680 C 263.308 22.763,266.072 23.762,266.539 24.012 C 266.699 24.097,266.904 24.167,266.997 24.167 C 267.181 24.167,271.224 25.794,272.630 26.433 C 273.113 26.653,273.546 26.833,273.590 26.833 C 273.695 26.833,277.502 28.514,279.333 29.369 C 283.005 31.082,288.067 33.682,291.833 35.788 C 292.887 36.378,293.803 36.873,293.867 36.888 C 294.010 36.923,301.821 32.450,301.821 32.333 C 301.821 32.180,297.893 29.849,295.000 28.286 C 294.496 28.014,293.287 27.357,292.314 26.828 C 288.575 24.792,282.422 21.811,278.333 20.054 C 277.188 19.561,276.100 19.087,275.917 19.000 C 273.394 17.802,263.587 14.226,259.000 12.832 C 258.037 12.539,256.837 12.163,256.333 11.995 C 254.514 11.391,246.129 9.167,245.670 9.167 C 245.617 9.167,244.601 9.738,243.412 10.437 M298.750 74.495 C 293.831 75.557,289.883 79.473,288.604 84.556 L 288.224 86.066 287.237 86.273 C 281.450 87.489,277.774 88.321,274.417 89.173 C 272.217 89.732,270.148 90.257,269.819 90.339 C 268.634 90.637,262.707 92.322,260.750 92.917 C 259.650 93.252,258.487 93.600,258.167 93.691 C 257.846 93.782,257.171 93.993,256.667 94.160 C 256.162 94.327,255.338 94.588,254.833 94.741 C 251.767 95.671,244.482 98.145,240.333 99.665 C 239.279 100.051,237.742 100.614,236.917 100.916 C 234.011 101.977,232.634 102.505,229.090 103.912 C 224.805 105.614,225.465 105.608,224.174 103.958 C 221.960 101.130,220.244 98.988,219.750 98.436 C 219.658 98.334,218.949 97.462,218.173 96.500 C 217.397 95.537,216.720 94.712,216.668 94.667 C 216.616 94.621,215.566 93.383,214.334 91.917 C 213.102 90.450,212.017 89.168,211.922 89.067 C 211.828 88.967,211.300 88.367,210.750 87.734 C 210.200 87.101,209.411 86.209,208.997 85.750 C 208.583 85.292,207.683 84.280,206.997 83.502 C 206.311 82.724,205.576 81.923,205.364 81.723 L 204.977 81.358 202.530 82.779 C 201.185 83.561,199.762 84.380,199.369 84.600 C 198.977 84.820,198.470 85.121,198.243 85.270 L 197.830 85.541 198.373 86.064 C 198.672 86.352,199.442 87.179,200.083 87.903 C 200.725 88.626,201.325 89.301,201.417 89.402 C 202.127 90.184,204.145 92.487,205.080 93.583 C 205.705 94.317,206.300 94.992,206.401 95.083 C 206.502 95.175,206.921 95.662,207.332 96.167 C 207.743 96.671,208.117 97.121,208.164 97.167 C 208.628 97.618,212.454 102.256,215.381 105.917 C 216.554 107.383,217.605 108.696,217.716 108.833 C 218.720 110.074,220.198 112.076,220.402 112.471 C 221.567 114.724,223.506 114.919,227.683 113.204 C 237.648 109.112,252.643 103.725,260.500 101.414 C 268.059 99.190,270.738 98.446,276.167 97.064 C 278.137 96.562,280.275 96.034,280.917 95.891 C 281.558 95.747,282.346 95.570,282.667 95.497 C 283.412 95.326,285.112 94.968,287.333 94.513 C 288.296 94.316,289.249 94.120,289.452 94.076 C 289.753 94.011,289.929 94.166,290.406 94.912 C 291.215 96.176,293.182 98.330,293.530 98.332 C 293.592 98.333,293.751 98.441,293.882 98.573 C 294.014 98.704,294.605 99.069,295.197 99.382 C 302.714 103.370,311.905 99.662,314.427 91.625 C 314.690 90.786,314.781 90.667,315.155 90.666 C 315.567 90.665,316.596 90.113,321.500 87.260 C 322.737 86.540,324.095 85.756,324.518 85.517 C 327.716 83.709,329.299 82.746,329.237 82.645 C 329.197 82.580,325.771 82.528,321.624 82.529 L 314.083 82.531 313.523 81.474 C 311.846 78.306,309.134 76.013,305.667 74.828 C 304.471 74.419,300.080 74.207,298.750 74.495 M266.763 144.987 L 246.167 165.584 246.167 181.125 L 246.167 196.667 260.875 196.665 C 276.070 196.664,279.904 196.540,284.167 195.911 C 307.215 192.508,319.693 177.465,317.749 155.426 C 317.416 151.649,316.661 148.063,315.677 145.583 C 312.565 137.743,307.297 132.030,299.789 128.352 C 297.316 127.140,293.971 125.854,292.562 125.573 C 292.459 125.552,291.954 125.413,291.440 125.264 C 290.499 124.990,289.334 124.731,288.055 124.510 L 287.359 124.390 266.763 144.987 M21.740 138.396 C 21.562 138.518,21.079 138.806,20.667 139.036 C 20.254 139.265,19.129 139.914,18.167 140.476 C 17.204 141.038,15.392 142.080,14.140 142.791 C 12.002 144.005,11.851 144.124,11.658 144.750 C 11.545 145.117,11.350 145.738,11.226 146.130 C 10.369 148.839,8.711 155.737,7.571 161.333 C 6.666 165.772,5.809 171.121,5.246 175.833 C 4.815 179.447,4.670 180.853,4.493 183.167 C 4.398 184.404,4.244 186.279,4.150 187.333 C 3.849 190.727,3.742 204.404,4.017 204.297 C 4.145 204.247,5.938 203.228,8.000 202.032 L 11.750 199.857 11.790 198.470 C 11.985 191.677,12.415 184.240,12.820 180.667 C 12.908 179.887,13.063 178.500,13.164 177.583 C 14.482 165.625,17.343 152.965,21.765 139.516 C 22.213 138.156,22.211 138.073,21.740 138.396 M279.833 145.101 C 284.884 145.840,288.777 147.943,290.765 151.007 C 291.030 151.416,291.285 151.787,291.332 151.833 C 291.594 152.090,292.616 154.877,292.738 155.667 C 292.787 155.987,292.882 156.550,292.950 156.917 C 293.103 157.747,293.101 162.182,292.948 163.083 C 292.680 164.664,292.384 165.759,292.060 166.371 C 291.928 166.621,291.812 166.883,291.804 166.954 C 291.769 167.241,291.232 168.270,290.958 168.573 C 290.798 168.751,290.667 168.960,290.667 169.038 C 290.667 169.323,289.461 170.593,288.281 171.552 C 285.282 173.991,280.569 175.167,273.797 175.167 L 270.833 175.167 270.833 159.893 L 270.833 144.620 274.458 144.732 C 276.452 144.794,278.871 144.960,279.833 145.101 M236.500 176.455 L 235.250 176.511 225.292 186.463 C 219.815 191.937,215.333 196.472,215.333 196.541 C 215.333 196.610,220.583 196.667,227.000 196.667 L 238.667 196.667 238.667 186.500 L 238.667 176.333 238.208 176.366 C 237.956 176.385,237.188 176.425,236.500 176.455 M395.249 184.309 C 395.158 184.396,393.471 185.385,391.500 186.509 C 389.529 187.633,387.898 188.566,387.874 188.583 C 387.851 188.599,387.910 191.194,388.006 194.348 C 388.464 209.379,387.116 224.549,384.008 239.333 C 383.496 241.771,381.798 248.627,381.026 251.375 C 380.672 252.635,380.410 253.667,380.445 253.667 C 380.479 253.667,380.787 253.490,381.129 253.274 C 381.915 252.777,386.386 250.183,388.605 248.936 L 390.293 247.988 390.723 246.202 C 391.478 243.072,392.766 236.900,393.149 234.583 C 393.240 234.033,393.426 232.946,393.563 232.167 C 393.793 230.860,393.937 229.907,394.344 227.000 C 394.487 225.980,394.819 223.198,395.180 220.000 C 396.401 209.196,396.451 183.170,395.249 184.309 M169.603 206.921 C 169.363 207.428,169.167 207.938,169.167 208.055 C 169.167 208.171,169.102 208.338,169.024 208.425 C 168.945 208.512,168.485 209.558,168.001 210.750 C 167.099 212.971,166.311 214.865,165.920 215.750 C 165.799 216.025,164.859 218.275,163.832 220.750 C 162.805 223.225,161.823 225.568,161.649 225.957 C 161.475 226.345,161.333 226.740,161.333 226.834 C 161.333 226.928,161.260 227.135,161.169 227.294 C 160.848 227.861,159.986 229.875,160.041 229.930 C 160.072 229.961,165.445 224.639,171.980 218.103 L 183.863 206.220 181.572 206.110 C 180.312 206.049,177.201 206.000,174.660 206.000 L 170.039 206.000 169.603 206.921 M109.076 209.144 C 105.241 210.453,104.552 215.594,107.917 217.791 L 108.750 218.336 108.833 228.932 L 108.917 239.528 109.461 240.014 L 110.005 240.500 121.245 240.500 C 134.222 240.500,133.833 240.557,133.833 238.659 C 133.833 236.863,133.655 236.835,122.208 236.834 L 112.500 236.833 112.500 227.500 C 112.500 219.637,112.537 218.167,112.732 218.167 C 112.860 218.167,113.351 217.819,113.824 217.394 C 117.787 213.830,114.103 207.428,109.076 209.144 M111.958 212.789 C 112.646 213.637,112.263 214.879,111.174 215.330 C 110.126 215.764,108.996 214.942,109.006 213.752 C 109.019 212.143,110.928 211.521,111.958 212.789 M88.221 229.106 C 85.555 230.051,84.318 233.356,85.652 235.971 C 86.011 236.675,87.268 237.904,87.802 238.073 C 88.145 238.182,88.153 238.276,88.201 242.884 C 88.255 248.087,88.291 248.261,89.400 248.660 C 90.699 249.126,139.101 248.826,139.646 248.348 C 140.588 247.521,140.535 246.191,139.527 245.375 C 139.324 245.211,134.278 245.167,115.551 245.167 L 91.833 245.167 91.833 241.705 L 91.833 238.242 92.434 237.919 C 97.562 235.157,93.736 227.152,88.221 229.106 M90.809 232.238 C 92.292 233.004,91.666 235.313,89.971 235.328 C 89.506 235.332,89.236 235.211,88.846 234.821 C 87.475 233.449,89.077 231.342,90.809 232.238 M85.552 250.914 C 81.846 252.794,82.004 258.101,85.818 259.787 C 88.037 260.768,90.915 259.765,92.018 257.625 L 92.340 257.000 112.715 257.000 L 133.089 257.000 134.917 255.167 L 136.744 253.333 114.467 253.333 C 92.284 253.333,92.189 253.332,92.083 252.998 C 91.451 251.006,87.719 249.816,85.552 250.914 M88.631 253.927 C 89.961 254.859,89.496 256.732,87.880 256.948 C 86.257 257.166,85.410 254.989,86.717 253.962 C 87.175 253.602,88.141 253.584,88.631 253.927 M107.543 262.005 C 106.566 262.397,106.501 262.789,106.501 268.292 L 106.500 273.333 104.292 273.333 L 102.083 273.333 101.622 272.511 C 99.562 268.844,93.949 269.513,92.744 273.571 C 91.184 278.826,98.069 282.184,101.399 277.792 L 101.873 277.167 105.078 277.167 C 110.467 277.167,110.165 277.550,110.166 270.708 L 110.167 265.500 117.378 265.500 L 124.589 265.500 126.417 263.667 L 128.244 261.833 118.080 261.844 C 112.456 261.850,107.750 261.922,107.543 262.005 M98.475 273.755 C 100.140 275.155,98.143 277.578,96.412 276.257 C 96.116 276.032,95.837 275.648,95.790 275.403 C 95.481 273.785,97.232 272.709,98.475 273.755 M173.917 286.098 C 173.367 286.327,172.767 286.577,172.583 286.652 C 172.400 286.727,172.063 286.870,171.833 286.970 C 169.967 287.782,160.757 291.355,158.667 292.078 C 158.071 292.285,156.646 292.794,155.500 293.211 C 152.528 294.291,150.836 294.873,147.333 296.021 C 145.637 296.577,143.987 297.128,143.667 297.247 C 139.228 298.882,122.436 303.440,115.417 304.915 C 110.358 305.977,107.453 306.532,104.083 307.077 C 99.825 307.767,99.521 307.813,97.417 308.082 C 96.317 308.223,94.892 308.410,94.250 308.496 C 93.608 308.583,92.483 308.701,91.750 308.758 C 91.017 308.816,89.442 308.968,88.250 309.097 C 87.058 309.225,85.722 309.331,85.281 309.332 C 84.594 309.333,84.213 309.489,82.642 310.417 C 81.632 311.012,80.779 311.500,80.747 311.500 C 80.716 311.500,79.691 312.088,78.470 312.808 C 77.249 313.527,75.031 314.812,73.542 315.665 C 72.052 316.517,70.833 317.274,70.833 317.347 C 70.833 317.538,85.874 317.410,88.167 317.200 C 94.391 316.629,94.117 316.658,98.667 316.073 C 99.721 315.937,101.033 315.755,101.583 315.667 C 102.133 315.580,103.333 315.392,104.250 315.251 C 107.275 314.785,113.793 313.545,117.083 312.811 C 118.275 312.545,119.737 312.221,120.333 312.091 C 121.945 311.740,127.942 310.244,130.417 309.577 C 131.608 309.256,133.108 308.852,133.750 308.679 C 134.392 308.506,135.704 308.126,136.667 307.835 C 137.629 307.543,139.054 307.119,139.833 306.891 C 142.265 306.182,142.697 306.051,144.667 305.422 C 151.260 303.316,163.524 299.038,164.539 298.490 C 164.699 298.404,164.906 298.333,165.000 298.333 C 165.192 298.333,172.892 295.331,173.912 294.858 L 174.574 294.551 176.639 297.150 C 177.774 298.580,178.939 300.044,179.227 300.404 C 180.220 301.644,182.904 304.917,182.996 305.000 C 183.046 305.046,183.424 305.496,183.836 306.000 C 184.247 306.503,184.780 307.141,185.021 307.416 C 185.262 307.691,186.192 308.779,187.089 309.833 C 187.985 310.887,189.213 312.312,189.818 312.998 C 191.083 314.434,190.864 314.190,192.583 316.082 C 193.317 316.889,194.014 317.688,194.134 317.857 C 194.682 318.633,194.852 318.592,197.539 317.033 C 198.938 316.221,200.520 315.311,201.054 315.009 L 202.025 314.461 201.626 314.022 C 201.406 313.781,200.857 313.175,200.405 312.676 C 199.953 312.177,199.433 311.609,199.250 311.413 C 199.067 311.218,198.392 310.464,197.751 309.738 C 197.111 309.011,196.548 308.379,196.501 308.333 C 196.455 308.287,195.968 307.725,195.419 307.083 C 194.870 306.442,194.382 305.879,194.333 305.833 C 194.285 305.787,193.610 305.000,192.833 304.083 C 192.057 303.167,191.382 302.379,191.334 302.333 C 191.285 302.287,190.909 301.839,190.498 301.336 C 190.086 300.833,189.600 300.238,189.417 300.014 C 189.233 299.790,188.853 299.339,188.570 299.012 C 188.144 298.517,185.809 295.636,183.834 293.167 C 181.838 290.671,179.891 288.151,179.576 287.653 C 178.370 285.748,176.189 285.149,173.917 286.098 M95.333 357.485 C 94.164 358.205,90.351 360.402,89.319 360.951 L 88.387 361.446 90.652 362.956 C 98.400 368.123,104.586 371.730,112.333 375.599 C 116.183 377.521,120.621 379.563,124.083 381.006 C 124.267 381.083,124.792 381.305,125.250 381.501 C 126.516 382.042,132.398 384.298,134.000 384.858 C 136.877 385.863,141.803 387.475,143.583 387.993 C 144.592 388.286,145.625 388.592,145.880 388.673 C 146.258 388.792,146.503 388.725,147.213 388.304 C 148.437 387.580,154.590 384.031,155.532 383.506 L 156.313 383.071 154.115 382.516 C 152.906 382.211,150.867 381.663,149.583 381.297 C 148.300 380.931,146.987 380.559,146.667 380.470 C 144.682 379.918,139.717 378.306,137.250 377.413 C 136.333 377.081,135.358 376.734,135.083 376.641 C 134.808 376.548,134.433 376.413,134.250 376.340 C 134.067 376.267,132.717 375.739,131.250 375.167 C 129.783 374.594,128.358 374.027,128.083 373.906 C 127.808 373.785,126.083 373.036,124.250 372.242 C 118.434 369.723,111.124 366.009,105.500 362.717 C 104.721 362.261,103.437 361.510,102.648 361.048 C 101.858 360.586,100.545 359.775,99.731 359.246 C 95.814 356.701,96.294 356.893,95.333 357.485 " stroke="none" fill="#04acdc" fill-rule="evenodd"></path></g></svg>